<?xml version="1.0" standalone="no"?>
<!DOCTYPE svg PUBLIC "-//W3C//DTD SVG 20010904//EN"
 "http://www.w3.org/TR/2001/REC-SVG-20010904/DTD/svg10.dtd">
<svg version="1.0" xmlns="http://www.w3.org/2000/svg"
 width="1980.000000pt" height="1980.000000pt" viewBox="0 0 1980.000000 1980.000000"
 preserveAspectRatio="xMidYMid meet">
<metadata>
Created by potrace 1.11, written by Peter Selinger 2001-2013
</metadata>
<g transform="translate(0.000000,1980.000000) scale(0.100000,-0.100000)"
fill="#000000" stroke="none">
<path d="M1781 19789 c-750 -79 -1386 -570 -1655 -1277 -39 -101 -78 -247
-103 -382 -17 -90 -18 -483 -21 -8155 -2 -5702 0 -8094 8 -8175 31 -333 141
-653 315 -914 318 -479 832 -805 1380 -875 68 -9 2087 -11 8245 -9 l8155 3
120 27 c407 92 737 276 1020 569 284 294 452 628 532 1059 17 90 18 483 21
8155 2 5702 0 8094 -8 8175 -46 493 -248 915 -601 1255 -294 284 -628 452
-1059 532 -90 17 -480 18 -8180 19 -4632 1 -8121 -2 -8169 -7z m11764 -755
c-283 -47 -531 -177 -724 -379 -234 -246 -354 -545 -354 -885 0 -160 13 -249
59 -390 143 -446 505 -768 974 -866 117 -25 353 -25 470 -1 203 43 394 126
535 232 131 98 266 249 347 389 15 25 34 46 43 46 24 0 229 -94 350 -161 423
-234 810 -590 1085 -999 609 -906 695 -2074 224 -3059 -348 -729 -975 -1304
-1724 -1584 -221 -82 -444 -138 -700 -174 -168 -24 -616 -24 -770 0 -57 8
-105 15 -106 14 -1 -1 -27 -161 -58 -356 -40 -254 -53 -356 -45 -361 6 -4 57
-13 112 -19 596 -68 1155 -12 1696 168 1144 383 2045 1283 2426 2426 85 253
137 480 172 750 26 200 26 741 0 935 -97 726 -372 1377 -820 1939 -123 154
-433 466 -582 585 -137 109 -413 293 -565 376 -143 79 -244 126 -428 200 -79
32 -146 60 -148 63 -3 3 -14 46 -24 96 -35 173 -99 326 -197 474 -62 94 -198
235 -296 308 -146 109 -360 199 -552 233 -70 13 182 14 1995 13 l2075 -2 96
-27 c197 -54 336 -124 485 -242 226 -178 388 -458 439 -755 13 -76 15 -1052
13 -8166 l-3 -8080 -27 -96 c-54 -197 -124 -336 -242 -485 -178 -226 -458
-388 -755 -439 -76 -13 -1051 -15 -8161 -13 l-8075 3 -96 27 c-197 54 -336
124 -485 242 -226 178 -388 458 -439 755 -13 76 -15 1052 -13 8166 l3 8080 27
96 c54 197 124 336 242 485 175 222 454 386 745 438 64 12 1017 14 5966 14
4982 0 5878 -2 5810 -14z m320 -729 c101 -26 177 -68 252 -139 232 -218 232
-575 2 -792 -221 -207 -551 -202 -764 11 -213 213 -213 557 0 770 135 135 338
194 510 150z"/>
<path d="M3160 17209 c-276 -36 -551 -196 -720 -421 -150 -199 -220 -412 -220
-670 0 -188 30 -320 112 -487 153 -311 471 -542 813 -591 58 -8 619 -10 2045
-8 l1965 3 85 24 c390 109 677 388 784 764 184 642 -243 1294 -908 1386 -94
13 -3856 13 -3956 0z m3919 -738 c107 -33 181 -102 233 -216 31 -69 31 -187
-1 -267 -31 -79 -97 -150 -179 -190 l-67 -33 -1925 0 -1925 0 -57 27 c-70 32
-138 99 -174 170 -39 75 -46 207 -14 290 25 68 104 159 164 190 94 49 6 47
2003 47 1814 1 1883 0 1942 -18z"/>
<path d="M9680 14740 c-1239 -113 -2224 -1068 -2366 -2296 -22 -192 -15 -547
15 -724 71 -415 241 -814 487 -1140 127 -168 293 -340 452 -467 l24 -19 -64
-44 c-205 -141 -482 -404 -635 -601 -272 -350 -467 -769 -557 -1196 -60 -284
-59 -253 -63 -1550 l-4 -1193 365 0 365 0 4 1183 c3 1280 1 1226 59 1472 66
285 216 596 401 835 199 257 474 482 762 626 l114 57 143 -41 c252 -72 463
-102 718 -102 254 0 466 30 717 102 l143 40 114 -57 c437 -217 780 -562 996
-1000 104 -210 163 -397 207 -650 15 -90 17 -218 20 -1282 l4 -1183 364 0 365
0 0 1078 c0 592 -5 1147 -10 1232 -13 215 -35 357 -85 555 -56 220 -119 391
-221 595 -219 438 -525 794 -911 1064 -46 32 -83 61 -83 65 0 4 31 33 69 65
111 92 299 292 393 416 255 341 416 716 490 1145 20 114 22 165 22 415 0 251
-2 301 -22 414 -68 394 -201 733 -406 1040 -112 167 -187 259 -335 406 -466
464 -1098 728 -1781 745 -96 2 -218 0 -270 -5z m552 -754 c742 -138 1311 -673
1487 -1396 42 -171 54 -299 49 -511 -8 -283 -60 -500 -178 -745 -259 -537
-777 -931 -1370 -1041 -115 -21 -414 -29 -537 -14 -131 16 -374 82 -503 137
-625 262 -1060 834 -1141 1497 -18 147 -7 465 21 592 33 152 94 330 159 462
288 582 839 969 1486 1043 135 15 373 4 527 -24z"/>
<path d="M5830 9343 c-451 -31 -871 -129 -1259 -292 -652 -275 -1229 -735
-1641 -1312 -366 -510 -601 -1112 -686 -1751 -25 -192 -30 -652 -9 -858 146
-1433 1071 -2661 2401 -3189 122 -49 150 -64 155 -83 4 -13 18 -71 32 -129 59
-248 170 -443 354 -620 245 -236 536 -353 878 -353 355 0 652 121 901 369 148
148 249 309 314 503 50 148 63 253 57 452 -5 190 -22 275 -87 437 -196 490
-701 814 -1230 789 -424 -19 -793 -228 -1022 -576 -40 -61 -78 -110 -86 -110
-7 0 -70 26 -140 58 -526 240 -987 639 -1311 1132 -413 628 -586 1408 -476
2141 83 550 301 1055 644 1489 118 148 401 427 549 538 557 422 1203 642 1887
642 l165 0 1 43 c0 23 8 184 18 357 12 218 14 317 6 322 -9 7 -319 8 -415 1z
m414 -6797 c220 -83 358 -282 359 -515 0 -151 -53 -280 -160 -387 -183 -182
-465 -214 -681 -75 -116 74 -215 217 -243 349 -16 80 -7 224 19 297 61 168
214 306 388 350 89 22 231 14 318 -19z"/>
<path d="M12649 4760 c-352 -60 -643 -276 -799 -595 -97 -197 -133 -387 -112
-592 53 -518 444 -919 957 -982 122 -15 3804 -16 3925 -1 128 16 223 45 355
110 271 132 460 350 554 638 44 132 54 221 48 389 -5 153 -24 241 -77 373 -86
216 -257 407 -475 533 -88 51 -255 110 -355 126 -77 13 -3948 13 -4021 1z
m3993 -752 c70 -32 138 -99 174 -170 39 -75 46 -207 14 -290 -30 -80 -104
-159 -188 -200 l-67 -33 -1915 0 -1915 0 -67 32 c-84 40 -142 97 -181 181 -28
59 -32 77 -32 152 0 71 5 95 27 141 43 94 124 170 217 204 30 11 378 13 1956
12 l1920 -2 57 -27z"/>
</g>
</svg>
